<svg xmlns="http://www.w3.org/2000/svg" viewBox="0 0 480 130" width="480" height="130">
  <title>SpeakEasy Language Academy logo</title>
  <desc>A small purple globe icon with black grid lines and white continent shapes, next to a large, clearly legible SpeakEasy Language Academy wordmark.</desc>

  <g transform="translate(36,52)">
    <circle cx="0" cy="0" r="28" fill="#6c3fc5"/>

    <clipPath id="globeClip">
      <circle cx="0" cy="0" r="28"/>
    </clipPath>

    <g clip-path="url(#globeClip)">
      <path d="M-24 -12 q5 -4 10 -1 q2 2 -1 4 q-4 2 -1 5 q2 2 -4 4 q-5 1 -5 -4 q1 -4 -3 -4 q-3 -1 4 -4 Z" fill="#ffffff" opacity="0.92"/>
      <path d="M-19 2 q5 -2 7 2 q2 3 -2 4 q-4 1 -2 4 q2 3 -4 3 q-4 0 -4 -4 q1 -3 -2 -4 q-2 -1 7 -5 Z" fill="#ffffff" opacity="0.88"/>
      <path d="M-3 -19 q8 -2 11 4 q2 4 -4 4 q-5 0 -4 4 q1 4 -5 3 q-5 -1 -3 -7 q2 -4 -2 -5 q-3 -1 7 -3 Z" fill="#ffffff" opacity="0.92"/>
      <path d="M6 -6 q7 -2 10 3 q2 3 -3 4 q-5 1 -3 5 q1 4 -5 3 q-5 -1 -4 -6 q1 -4 -4 -5 q-3 -1 9 -4 Z" fill="#ffffff" opacity="0.9"/>
      <path d="M8 8 q9 -2 13 4 q3 4 -4 6 q-6 2 -5 6 q1 4 -5 3 q-6 -1 -4 -7 q2 -5 -4 -7 q-4 -1 9 -5 Z" fill="#ffffff" opacity="0.9"/>
      <path d="M-13 14 q5 -2 8 2 q2 3 -3 4 q-4 1 -2 4 q2 3 -4 2 q-5 -1 -3 -5 q1 -3 -2 -4 q-3 -1 6 -3 Z" fill="#ffffff" opacity="0.85"/>
      <path d="M18 -17 q5 -1 6 3 q1 3 -3 3 q-4 1 -2 4 q1 3 -4 2 q-4 -1 -3 -5 q1 -3 -2 -3 q-2 -1 8 -4 Z" fill="#ffffff" opacity="0.85"/>
    </g>

    <ellipse cx="0" cy="0" rx="28" ry="10" fill="none" stroke="#1a1207" stroke-width="1.2"/>
    <ellipse cx="0" cy="0" rx="13" ry="28" fill="none" stroke="#1a1207" stroke-width="1.2"/>
    <line x1="-28" y1="0" x2="28" y2="0" stroke="#1a1207" stroke-width="1.2"/>
    <circle cx="0" cy="0" r="28" fill="none" stroke="#1a1207" stroke-width="1.6"/>
  </g>

  <text x="76" y="58" font-family="'Poppins', Arial, sans-serif" font-size="42" font-weight="800" letter-spacing="0.3">
    <tspan fill="#6c3fc5">Speak</tspan><tspan fill="#1a1207">Easy</tspan>
  </text>
  <text x="76" y="86" font-family="'Poppins', Arial, sans-serif" font-size="17" font-weight="700" fill="#000000" letter-spacing="2.5">LANGUAGE ACADEMY</text>
</svg>
